<mxfile host="65bd71144e">
    <diagram id="3nxS40y-VHfp81PSal24" name="Page-1">
        <mxGraphModel dx="1052" dy="787" grid="1" gridSize="10" guides="1" tooltips="1" connect="1" arrows="1" fold="1" page="1" pageScale="1" pageWidth="827" pageHeight="1169" math="0" shadow="0">
            <root>
                <mxCell id="0"/>
                <mxCell id="1" parent="0"/>
                <mxCell id="2" value="" style="rounded=0;whiteSpace=wrap;html=1;fillColor=#fad7ac;strokeColor=#b46504;" parent="1" vertex="1">
                    <mxGeometry x="40" y="20" width="720" height="480" as="geometry"/>
                </mxCell>
                <mxCell id="4" value="" style="rounded=1;whiteSpace=wrap;html=1;strokeWidth=3;strokeColor=#b46504;fillColor=#fad7ac;" parent="1" vertex="1">
                    <mxGeometry x="70" y="30" width="230" height="60" as="geometry"/>
                </mxCell>
                <mxCell id="5" value="&lt;font style=&quot;font-size: 18px&quot; color=&quot;#121212&quot;&gt;HakkÄ±mda&lt;/font&gt;" style="text;html=1;align=center;verticalAlign=middle;whiteSpace=wrap;rounded=0;" vertex="1" parent="1">
                    <mxGeometry x="130" y="40" width="90" height="40" as="geometry"/>
                </mxCell>
                <mxCell id="7" value="" style="rounded=1;whiteSpace=wrap;html=1;strokeWidth=3;strokeColor=#b46504;fillColor=#fad7ac;" vertex="1" parent="1">
                    <mxGeometry x="310" y="30" width="420" height="60" as="geometry"/>
                </mxCell>
                <mxCell id="8" value="" style="rounded=1;whiteSpace=wrap;html=1;strokeWidth=3;strokeColor=#b46504;fillColor=#fad7ac;" vertex="1" parent="1">
                    <mxGeometry x="70" y="110" width="230" height="350" as="geometry"/>
                </mxCell>
                <mxCell id="10" value="" style="rounded=1;whiteSpace=wrap;html=1;strokeWidth=3;strokeColor=#b46504;fillColor=#fad7ac;" vertex="1" parent="1">
                    <mxGeometry x="310" y="110" width="140" height="220" as="geometry"/>
                </mxCell>
                <mxCell id="11" value="" style="rounded=1;whiteSpace=wrap;html=1;strokeWidth=3;strokeColor=#b46504;fillColor=#fad7ac;" vertex="1" parent="1">
                    <mxGeometry x="310" y="340" width="140" height="120" as="geometry"/>
                </mxCell>
                <mxCell id="12" value="" style="rounded=1;whiteSpace=wrap;html=1;strokeWidth=3;strokeColor=#b46504;fillColor=#fad7ac;" vertex="1" parent="1">
                    <mxGeometry x="460" y="110" width="140" height="110" as="geometry"/>
                </mxCell>
                <mxCell id="13" value="" style="rounded=1;whiteSpace=wrap;html=1;strokeWidth=3;strokeColor=#b46504;fillColor=#fad7ac;" vertex="1" parent="1">
                    <mxGeometry x="460" y="230" width="140" height="140" as="geometry"/>
                </mxCell>
                <mxCell id="14" value="" style="rounded=1;whiteSpace=wrap;html=1;strokeWidth=3;strokeColor=#b46504;fillColor=#fad7ac;" vertex="1" parent="1">
                    <mxGeometry x="610" y="110" width="120" height="180" as="geometry"/>
                </mxCell>
                <mxCell id="15" value="" style="rounded=1;whiteSpace=wrap;html=1;strokeWidth=3;strokeColor=#b46504;fillColor=#fad7ac;" vertex="1" parent="1">
                    <mxGeometry x="610" y="300" width="120" height="160" as="geometry"/>
                </mxCell>
                <mxCell id="16" value="" style="rounded=1;whiteSpace=wrap;html=1;strokeWidth=3;strokeColor=#b46504;fillColor=#fad7ac;" vertex="1" parent="1">
                    <mxGeometry x="460" y="380" width="140" height="80" as="geometry"/>
                </mxCell>
            </root>
        </mxGraphModel>
    </diagram>
</mxfile>